<?xml version="1.0" encoding="UTF-8"?><svg xmlns="http://www.w3.org/2000/svg" xmlns:xlink="http://www.w3.org/1999/xlink" version="1.1" id="Layer_1" x="0px" y="0px" viewBox="0 0 24 24" xml:space="preserve"><circle fill="#2D98D4" cx="11" cy="6" r="6"/><path fill="#2D98D4" d="M19.539 15.255C17.535 14.226 14.427 13 11 13s-6.535 1.226-8.539 2.255A4.5 4.5 0 0 0 0 19.268V22h22v-2.732a4.5 4.5 0 0 0-2.461-4.013z"/><path opacity="0.1" fill="#010101" d="M0 21.75h22V22H0z"/><path opacity="0.2" fill="#FFF" d="M11 .25c3.266 0 5.926 2.625 5.994 5.875 0-.042.006-.083.006-.125 0-3.309-2.691-6-6-6S5 2.691 5 6c0 .042.005.083.006.125C5.074 2.875 7.734.25 11 .25z"/><path opacity="0.1" fill="#010101" d="M11 11.75c-3.266 0-5.926-2.625-5.994-5.875C5.006 5.917 5 5.958 5 6c0 3.309 2.691 6 6 6s6-2.691 6-6c0-.042-.005-.083-.006-.125-.068 3.25-2.728 5.875-5.994 5.875z"/><path opacity="0.2" fill="#FFF" d="M19.539 15.255C17.535 14.226 14.427 13 11 13s-6.535 1.226-8.539 2.255A4.5 4.5 0 0 0 0 19.268v.25a4.5 4.5 0 0 1 2.461-4.013C4.465 14.476 7.573 13.25 11 13.25s6.535 1.226 8.539 2.255A4.5 4.5 0 0 1 22 19.518v-.25a4.5 4.5 0 0 0-2.461-4.013z"/><path fill="#C6CCD0" d="M23.621 17.015l-.958-.24.508-.846a.5.5 0 0 0-.075-.611l-1.414-1.414a.499.499 0 0 0-.612-.075l-.845.507-.24-.958A.5.5 0 0 0 19.5 13h-2a.5.5 0 0 0-.485.378l-.24.958-.845-.507a.502.502 0 0 0-.612.075l-1.414 1.414a.5.5 0 0 0-.075.61l.508.847-.958.24A.5.5 0 0 0 13 17.5v2a.5.5 0 0 0 .379.485l.958.24-.508.846a.5.5 0 0 0 .075.611l1.414 1.414a.502.502 0 0 0 .612.075l.845-.507.24.958A.5.5 0 0 0 17.5 24h2a.5.5 0 0 0 .485-.378l.24-.958.845.507a.502.502 0 0 0 .612-.075l1.414-1.414a.5.5 0 0 0 .075-.61l-.508-.847.958-.24A.5.5 0 0 0 24 19.5v-2a.5.5 0 0 0-.379-.485zM18.5 20.5c-1.103 0-2-.897-2-2s.897-2 2-2 2 .897 2 2-.897 2-2 2z"/><path opacity="0.2" fill="#FFF" d="M18.5 20.75a2.002 2.002 0 0 0 1.996-2.125C20.43 19.669 19.56 20.5 18.5 20.5s-1.934-.831-2-1.875c-.003.042 0 .082 0 .125 0 1.103.897 2 2 2z"/><path opacity="0.2" fill="#FFF" d="M23.096 15.318l-1.414-1.414a.499.499 0 0 0-.612-.075l-.845.507-.24-.958A.5.5 0 0 0 19.5 13h-2a.5.5 0 0 0-.485.378l-.24.958-.845-.507a.502.502 0 0 0-.612.075l-1.414 1.414a.494.494 0 0 0-.133.467.54.54 0 0 1 .133-.217l1.414-1.414a.502.502 0 0 1 .612-.075l.845.507.24-.958a.5.5 0 0 1 .485-.378h2a.5.5 0 0 1 .485.378l.24.958.845-.507a.499.499 0 0 1 .612.075l1.414 1.414c.06.06.11.14.133.217a.494.494 0 0 0-.133-.467z"/><path opacity="0.1" fill="#010101" d="M21.682 22.846a.502.502 0 0 1-.612.075l-.845-.507-.24.958a.5.5 0 0 1-.485.378h-2a.5.5 0 0 1-.485-.378l-.24-.958-.845.507a.502.502 0 0 1-.612-.075l-1.414-1.414a.567.567 0 0 1-.131-.225c-.04.166.006.35.131.475l1.414 1.414a.502.502 0 0 0 .612.075l.845-.507.24.958A.5.5 0 0 0 17.5 24h2a.5.5 0 0 0 .485-.378l.24-.958.845.507a.502.502 0 0 0 .612-.075l1.414-1.414a.509.509 0 0 0 .131-.475.567.567 0 0 1-.131.225l-1.414 1.414z"/><path opacity="0.1" fill="#010101" d="M18.5 16.501c1.06 0 1.93.831 1.996 1.875a2.002 2.002 0 0 0-1.996-2.125 2.002 2.002 0 0 0-1.997 2.125 2.005 2.005 0 0 1 1.997-1.875z"/><linearGradient id="SVGID_1_" gradientUnits="userSpaceOnUse" x1="2.7836747" y1="9.4233646" x2="24.1905899" y2="19.4055729"><stop offset="0" stop-color="#FFF" stop-opacity="0.2"/><stop offset="1" stop-color="#FFF" stop-opacity="0"/></linearGradient><path fill="url(#SVGID_1_)" d="M11 12c3.309 0 6-2.691 6-6s-2.691-6-6-6-6 2.691-6 6 2.691 6 6 6zm12.621 5.015l-.958-.24.508-.846a.5.5 0 0 0-.075-.611l-1.414-1.414a.499.499 0 0 0-.612-.075l-.845.507-.24-.958A.5.5 0 0 0 19.5 13h-2a.5.5 0 0 0-.485.378l-.176.704C15.142 13.475 13.133 13 11 13c-3.427 0-6.535 1.226-8.539 2.255A4.5 4.5 0 0 0 0 19.268V22h14.222l1.096 1.096a.502.502 0 0 0 .612.075l.845-.507.24.958A.5.5 0 0 0 17.5 24h2a.5.5 0 0 0 .485-.378l.24-.958.845.507a.502.502 0 0 0 .612-.075l1.414-1.414a.5.5 0 0 0 .075-.61l-.508-.847.958-.24A.5.5 0 0 0 24 19.5v-2a.5.5 0 0 0-.379-.485z"/><metadata><rdf:RDF xmlns:rdf="http://www.w3.org/1999/02/22-rdf-syntax-ns#" xmlns:rdfs="http://www.w3.org/2000/01/rdf-schema#" xmlns:dc="http://purl.org/dc/elements/1.1/"><rdf:Description about="https://iconscout.com/legal#licenses" dc:title="action,people,user,settings" dc:description="action,people,user,settings" dc:publisher="Iconscout" dc:date="2017-10-09" dc:format="image/svg+xml" dc:language="en"><dc:creator><rdf:Bag><rdf:li>Those Icons</rdf:li></rdf:Bag></dc:creator></rdf:Description></rdf:RDF></metadata></svg>