<?xml version="1.0" encoding="UTF-8"?><svg xmlns="http://www.w3.org/2000/svg" xmlns:xlink="http://www.w3.org/1999/xlink" version="1.1" id="Layer_1" x="0px" y="0px" viewBox="0 0 24 24" xml:space="preserve"><path fill="#039BE5" d="M12 0C5.383 0 0 5.383 0 12s5.383 12 12 12 12-5.383 12-12S18.617 0 12 0z"/><path opacity="0.2" fill="#FFF" d="M12 .25c6.575 0 11.926 5.316 11.994 11.875 0-.042.006-.083.006-.125 0-6.617-5.383-12-12-12S0 5.383 0 12c0 .042.006.083.006.125C.074 5.566 5.426.25 12 .25z"/><path opacity="0.1" d="M12 23.75C5.425 23.75.074 18.434.006 11.875c0 .042-.006.083-.006.125 0 6.617 5.383 12 12 12s12-5.383 12-12c0-.042-.006-.083-.006-.125C23.926 18.434 18.574 23.75 12 23.75z"/><path fill="#FFF" d="M11 3h2v8.5h-2z"/><path fill="#FFF" d="M15 5.737v2.321a4.957 4.957 0 0 1 1.98 3.962c0 2.746-2.234 4.98-4.98 4.98s-4.98-2.234-4.98-4.98c0-1.587.754-3.035 1.98-3.962V5.737a6.95 6.95 0 0 0-3.98 6.283C5.02 15.869 8.151 19 12 19s6.98-3.131 6.98-6.98A6.95 6.95 0 0 0 15 5.737z"/><path d="M7.057 16.942v.001l.007.008z"/><linearGradient id="SVGID_1_" gradientUnits="userSpaceOnUse" x1="8.0889473" y1="8.0320625" x2="18.4624977" y2="18.4056129"><stop offset="0" stop-color="#3E2723" stop-opacity="0.2"/><stop offset="1" stop-color="#3E2723" stop-opacity="0"/></linearGradient><path fill="url(#SVGID_1_)" d="M13 3v8.5h-2V7.737l-2-2v2.321a4.957 4.957 0 0 0-1.98 3.962C7.02 14.766 9.254 17 12 17s4.98-2.234 4.98-4.98A4.957 4.957 0 0 0 15 8.058V5.737a6.95 6.95 0 0 1 3.98 6.283A6.988 6.988 0 0 1 12 19a6.958 6.958 0 0 1-4.93-2.044l6.872 6.872a12.009 12.009 0 0 0 9.901-9.985L13 3z"/><linearGradient id="SVGID_2_" gradientUnits="userSpaceOnUse" x1="1.1249185" y1="6.9288664" x2="22.875082" y2="17.0711346"><stop offset="0" stop-color="#FFF" stop-opacity="0.2"/><stop offset="1" stop-color="#FFF" stop-opacity="0"/></linearGradient><path fill="url(#SVGID_2_)" d="M12 0C5.383 0 0 5.383 0 12s5.383 12 12 12 12-5.383 12-12S18.617 0 12 0z"/><metadata><rdf:RDF xmlns:rdf="http://www.w3.org/1999/02/22-rdf-syntax-ns#" xmlns:rdfs="http://www.w3.org/2000/01/rdf-schema#" xmlns:dc="http://purl.org/dc/elements/1.1/"><rdf:Description about="https://iconscout.com/legal#licenses" dc:title="ui,interface,user,power,on,off,button" dc:description="ui,interface,user,power,on,off,button" dc:publisher="Iconscout" dc:date="2017-11-13" dc:format="image/svg+xml" dc:language="en"><dc:creator><rdf:Bag><rdf:li>Those Icons</rdf:li></rdf:Bag></dc:creator></rdf:Description></rdf:RDF></metadata></svg>