<?xml version="1.0" encoding="UTF-8"?><svg xmlns="http://www.w3.org/2000/svg" xmlns:xlink="http://www.w3.org/1999/xlink" version="1.1" id="Layer_1" x="0px" y="0px" viewBox="0 0 24 24" xml:space="preserve"><path fill="#F2F2F2" d="M6.5 9h-3a.5.5 0 0 0-.5.5v10a.5.5 0 0 0 .5.5h3a.5.5 0 0 0 .5-.5v-10a.5.5 0 0 0-.5-.5z"/><path fill="#F2F2F2" d="M13.5 9h-3a.5.5 0 0 0-.5.5v10a.5.5 0 0 0 .5.5h3a.5.5 0 0 0 .5-.5v-10a.5.5 0 0 0-.5-.5z"/><path fill="#F2F2F2" d="M20.5 9h-3a.5.5 0 0 0-.5.5v10a.5.5 0 0 0 .5.5h3a.5.5 0 0 0 .5-.5v-10a.5.5 0 0 0-.5-.5z"/><path fill="#F2F2F2" d="M12.975 1.262l-.014-.008a1.963 1.963 0 0 0-.96-.254c-.327 0-.657.085-.976.261L1 7.215V10h22V7.215L12.975 1.262z"/><path opacity="0.1" d="M1 9.75h22V10H1z"/><path fill="#F2F2F2" d="M21 19H3c-1.103 0-2 .897-2 2v2h22v-2c0-1.103-.897-2-2-2z"/><path opacity="0.2" fill="#FFF" d="M21 19H3c-1.103 0-2 .897-2 2v.25c0-1.103.897-2 2-2h18c1.103 0 2 .897 2 2V21c0-1.103-.897-2-2-2z"/><path opacity="0.1" d="M1 22.75h22V23H1z"/><circle fill="#E6E6E6" cx="11.9990234" cy="6.0000019" r="2.0009766"/><path opacity="0.1" d="M11.999 4.249c.856 0 1.59.492 1.927 1.223-.227-.856-1-1.473-1.927-1.473s-1.7.618-1.927 1.474a2.108 2.108 0 0 1 1.927-1.224z"/><linearGradient id="SVGID_1_" gradientUnits="userSpaceOnUse" x1="8.2130156" y1="6.2130179" x2="18.9005871" y2="16.9005909"><stop offset="0" stop-color="#3E2723" stop-opacity="0.2"/><stop offset="1" stop-color="#3E2723" stop-opacity="0.02"/></linearGradient><path fill="url(#SVGID_1_)" d="M7 14v-4H3l4 4zm10-4v9h4v-9h-4zm-7 7l2 2h2v-9h-4v7z"/><path opacity="0.2" fill="#FFF" d="M11.999 7.751c-.856 0-1.59-.492-1.927-1.223.227.856 1 1.473 1.927 1.473s1.7-.618 1.927-1.474A2.108 2.108 0 0 1 12 7.75z"/><path opacity="0.2" fill="#FFF" d="M12.975 1.262l-.014-.008a1.963 1.963 0 0 0-.96-.254c-.327 0-.657.085-.976.261L1 7.215v.25l10.025-5.954c.643-.354 1.329-.344 1.936-.007l.014.008L23 7.465v-.25L12.975 1.262z"/><linearGradient id="SVGID_2_" gradientUnits="userSpaceOnUse" x1="0.1879578" y1="8.9567642" x2="24.3045006" y2="20.2024918"><stop offset="0" stop-color="#FFF" stop-opacity="0.2"/><stop offset="1" stop-color="#FFF" stop-opacity="0"/></linearGradient><path fill="url(#SVGID_2_)" d="M23 10V7.215L12.975 1.262l-.014-.008a1.962 1.962 0 0 0-.96-.254c-.327 0-.657.085-.976.261L1 7.215V10h2v9c-1.103 0-2 .897-2 2v2h22v-2c0-1.103-.897-2-2-2v-9h2zM7 10h3v9H7v-9zm10 9h-3v-9h3v9z"/><metadata><rdf:RDF xmlns:rdf="http://www.w3.org/1999/02/22-rdf-syntax-ns#" xmlns:rdfs="http://www.w3.org/2000/01/rdf-schema#" xmlns:dc="http://purl.org/dc/elements/1.1/"><rdf:Description about="https://iconscout.com/legal#licenses" dc:title="bank,building,architecture,finance,banking,money" dc:description="bank,building,architecture,finance,banking,money" dc:publisher="Iconscout" dc:date="2017-10-04" dc:format="image/svg+xml" dc:language="en"><dc:creator><rdf:Bag><rdf:li>Those Icons</rdf:li></rdf:Bag></dc:creator></rdf:Description></rdf:RDF></metadata></svg>