<?xml version="1.0" encoding="UTF-8"?><svg xmlns="http://www.w3.org/2000/svg" xmlns:xlink="http://www.w3.org/1999/xlink" version="1.1" id="Layer_1" x="0px" y="0px" viewBox="0 0 24 24" xml:space="preserve"><path fill="#039BE5" d="M20 18H2a2 2 0 0 1-2-2V4a2 2 0 0 1 2-2h18a2 2 0 0 1 2 2v12a2 2 0 0 1-2 2z"/><path opacity="0.2" fill="#FFF" d="M20 2H2a2 2 0 0 0-2 2v.25a2 2 0 0 1 2-2h18a2 2 0 0 1 2 2V4a2 2 0 0 0-2-2z"/><path opacity="0.1" d="M20 17.75H2a2 2 0 0 1-2-2V16a2 2 0 0 0 2 2h18a2 2 0 0 0 2-2v-.25a2 2 0 0 1-2 2z"/><path fill="#1C2B39" d="M0 5h22v4H0z"/><path opacity="0.05" fill="#FFF" d="M0 5h22v2H0z"/><circle fill="#E83628" cx="18.5" cy="16.5" r="5.5"/><path opacity="0.1" d="M18.5 21.75a5.622 5.622 0 0 1-5.263-3.654 5.5 5.5 0 0 0 10.526 0A5.622 5.622 0 0 1 18.5 21.75z"/><path opacity="0.2" fill="#FFF" d="M18.5 11.25a5.622 5.622 0 0 1 5.263 3.654 5.5 5.5 0 0 0-10.526 0A5.622 5.622 0 0 1 18.5 11.25z"/><path fill="#FFF" d="M16 16h5v1h-5z"/><linearGradient id="SVGID_1_" gradientUnits="userSpaceOnUse" x1="17.5" y1="15.5" x2="22.3873596" y2="20.3873596"><stop offset="0" stop-color="#000" stop-opacity="0.1"/><stop offset="1" stop-color="#000" stop-opacity="0"/></linearGradient><path fill="url(#SVGID_1_)" d="M21 16v1h-5l4.587 4.587a5.515 5.515 0 0 0 3-3L21 16z"/><linearGradient id="SVGID_2_" gradientUnits="userSpaceOnUse" x1="-0.503729" y1="4.6357179" x2="24.635973" y2="16.3585529"><stop offset="0" stop-color="#FFF" stop-opacity="0.2"/><stop offset="1" stop-color="#FFF" stop-opacity="0"/></linearGradient><path fill="url(#SVGID_2_)" d="M22 12.257V4a2 2 0 0 0-2-2H2a2 2 0 0 0-2 2v12a2 2 0 0 0 2 2h11.212A5.498 5.498 0 1 0 22 12.257z"/><metadata><rdf:RDF xmlns:rdf="http://www.w3.org/1999/02/22-rdf-syntax-ns#" xmlns:rdfs="http://www.w3.org/2000/01/rdf-schema#" xmlns:dc="http://purl.org/dc/elements/1.1/"><rdf:Description about="https://iconscout.com/legal#licenses" dc:title="bank,card,action,remove,minus" dc:description="bank,card,action,remove,minus" dc:publisher="Iconscout" dc:date="2017-10-04" dc:format="image/svg+xml" dc:language="en"><dc:creator><rdf:Bag><rdf:li>Those Icons</rdf:li></rdf:Bag></dc:creator></rdf:Description></rdf:RDF></metadata></svg>