<?xml version="1.0" encoding="UTF-8"?>
<!DOCTYPE svg PUBLIC "-//W3C//DTD SVG 1.1//EN" "http://www.w3.org/Graphics/SVG/1.1/DTD/svg11.dtd">
<svg version="1.1" id="Layer_1" xmlns="http://www.w3.org/2000/svg" xmlns:xlink="http://www.w3.org/1999/xlink" x="0px" y="0px" width="24px" height="24px" viewBox="0 0 24 24" enable-background="new 0 0 24 24" xml:space="preserve">
  <g id="icon">
    <path d="M6.62,10.79c1.44,2.83,3.76,5.14,6.59,6.59l2.2,-2.2c0.27,-0.27,0.67,-0.36,1.02,-0.24,1.12,0.37,2.33,0.57,3.57,0.57,0.55,0,1,0.45,1,1V20c0,0.55,-0.45,1,-1,1,-9.39,0,-17,-7.61,-17,-17,0,-0.55,0.45,-1,1,-1h3.5c0.55,0,1,0.45,1,1,0,1.25,0.2,2.45,0.57,3.57,0.11,0.35,0.03,0.74,-0.25,1.02l-2.2,2.2z" fill="#FF9800"/>
  </g>
</svg>
