<?xml version="1.0" encoding="UTF-8"?>
<!DOCTYPE svg PUBLIC "-//W3C//DTD SVG 1.1//EN" "http://www.w3.org/Graphics/SVG/1.1/DTD/svg11.dtd">
<svg version="1.1" id="Layer_1" xmlns="http://www.w3.org/2000/svg" xmlns:xlink="http://www.w3.org/1999/xlink" x="0px" y="0px" width="24px" height="24px" viewBox="0 0 24 24" enable-background="new 0 0 24 24" xml:space="preserve">
  <g id="main">
    <g id="icon">
      <path d="M2.596,3.04L2.221,3.156L1.883,3.34L1.589,3.584L1.347,3.879L1.165,4.219L1.05,4.595L1.01,5L1,17L1.04,17.4L1.156,17.78L1.34,18.12L1.584,18.42L1.879,18.66L2.219,18.84L2.595,18.96L3,19L13.89,19L13.94,18.94L14.16,18.76L14.42,18.62L14.7,18.53L15,18.5L20.31,18.5L20.42,18.42L20.66,18.12L20.84,17.78L20.96,17.4L21,17L21,5L20.96,4.595L20.84,4.219L20.66,3.879L20.42,3.584L20.12,3.34L19.78,3.156L19.4,3.04L19,3L3,3zM19,5L19,7L3,7L3,5zM19,11L19,17L3,17L3,11zz" fill="#000000"/>
    </g>
    <g id="overlay">
      <rect x="15" y="20" width="8" height="2" fill="#000000"/>
    </g>
  </g>
</svg>
